<?xml version="1.0" encoding="UTF-8"?><svg id="uuid-630bb6d3-e0ac-4901-8012-7a1638ba7c44" xmlns="http://www.w3.org/2000/svg" viewBox="0 0 897.29 297.81"><g><path d="M263.66,.47h74.37V291.14h-74.37V.47Z"/><path d="M375.23,198.04V74.81h74.37v119.99c0,22.79,12.25,36.19,32.12,36.19s31.89-13.63,31.89-36.19V74.81h74.37v123.23c0,60.42-42.48,99.77-106.26,99.77s-106.5-39.35-106.5-99.77Z"/><path d="M101.35,74.93h125.18v75.55H104.63c-23.15,0-36.77,12.44-36.77,32.63s13.85,32.39,36.77,32.39h121.89v75.55H101.35C39.98,291.05,0,247.9,0,183.11S39.98,74.93,101.35,74.93Z"/><path d="M625.06,198.04V74.81h74.37v119.99c0,22.79,12.25,36.19,32.12,36.19s31.89-13.63,31.89-36.19V74.81h74.37v123.23c0,60.42-42.48,99.77-106.26,99.77s-106.5-39.35-106.5-99.77Z"/></g><path d="M838.19,29.51c0-5.32,1.3-10.26,3.89-14.81,2.59-4.56,6.19-8.14,10.78-10.76,4.59-2.62,9.55-3.93,14.88-3.93s10.29,1.31,14.88,3.93c4.59,2.62,8.18,6.21,10.78,10.76,2.59,4.56,3.89,9.49,3.89,14.81s-1.32,10.34-3.95,14.91c-2.64,4.57-6.24,8.16-10.8,10.76-4.56,2.61-9.49,3.91-14.79,3.91s-10.31-1.32-14.88-3.95c-4.56-2.63-8.15-6.23-10.76-10.78-2.61-4.56-3.91-9.51-3.91-14.85Zm53.97-.02c0-4.37-1.04-8.44-3.12-12.2-2.08-3.76-5.02-6.76-8.82-9.01-3.8-2.25-7.96-3.38-12.48-3.38s-8.51,1.08-12.3,3.24c-3.79,2.16-6.76,5.14-8.93,8.93-2.16,3.79-3.25,7.93-3.25,12.41s1.07,8.62,3.23,12.41c2.15,3.8,5.12,6.79,8.91,9,3.79,2.2,7.9,3.3,12.34,3.3s8.57-1.12,12.38-3.36c3.81-2.24,6.78-5.26,8.88-9.05,2.11-3.8,3.16-7.89,3.16-12.3Zm-30.42,3.02v13.31h-6.28V12.25h11.69c4.19,0,7.49,.9,9.91,2.71,2.41,1.8,3.62,4.36,3.62,7.68,0,2.95-1.57,5.24-4.7,6.87,1.69,.82,2.88,1.96,3.56,3.42,.68,1.46,1.02,3.27,1.02,5.43s.05,3.69,.15,4.58c.1,.9,.28,1.65,.56,2.25v.63h-6.45c-.36-.89-.54-3.45-.54-7.66,0-2-.46-3.44-1.37-4.33-.92-.88-2.44-1.32-4.58-1.32h-6.58Zm0-5.29h5.66c2.05,0,3.74-.42,5.06-1.26s1.98-1.95,1.98-3.32c0-1.84-.49-3.16-1.48-3.93s-2.77-1.18-5.35-1.2h-5.87v9.72Z"/></svg>